<mxfile>
    <diagram id="wQ689BoANkhDYtpbxvqX" name="Page-1">
        <mxGraphModel dx="552" dy="452" grid="1" gridSize="10" guides="1" tooltips="1" connect="1" arrows="1" fold="1" page="1" pageScale="1" pageWidth="850" pageHeight="1100" math="0" shadow="0">
            <root>
                <mxCell id="0"/>
                <mxCell id="1" parent="0"/>
                <mxCell id="10" value="" style="shape=stencil(lZXLcoMwDEW/hq1Gtvxcp+l/ZCakMKUhQ0gff19TlxQU0JSdEPcIX1vIBe2u1eFSFhqvfde+lh/1sa8Keiq0rs9V2dV9igraF7Q7tV350rW38zE/Xw6Dcoje2vehwmfmEBAHSONXTsQI3v9knrO+qc8Tvdqo1wv64CR9dFwfhfoE5Gd6hXdLi4ABwk2ABWU2AiFuAhz4xz0K63oPRnO9E+oHUJ7rSUn6YLke9bo+gmX1A1jhjBWCZgY8RMFwAn73YwIYwbFSYGkOpE0WLKvUp5EDkucEOObBAkkeCJB1tgFHIsA9kOyBILI+0mNmGTCgFQe0dHDmYUlK9mAgeA6gFYD0t7Hew/GbawD7GUIaGNLBWXCWA14G2EhKwPykU/A3X/Novr9bG7yToTDWlafEP4DZOk5107C1pIDfCymV7xTafwM=);strokeWidth=4;strokeColor=#000000;" parent="1" vertex="1">
                    <mxGeometry x="138.86109924316406" y="45.195579528808594" width="185.64816284179688" height="100.23147583007812" as="geometry"/>
                </mxCell>
                <mxCell id="2" value="" style="shape=stencil(lZ3JkiW3DUW/prcZnIe1LP+HItSyOiyrFZI8/b3BaGe+rIv3Dqt2UjVvJQcQuBiI+pS/++PnH377/CmFP/78/evfP//7y49//vwp/+VTSl9+/fnz71/+tP/6lL//lL/76evvn//2+9d//vrjt///7Yc1cv3XP77+a/2G/3zDxXq0vlAp/Pf/P4nH+PaTv34D/PLl17eA5ACtAaAcvSog0hfKEeQL4agVAPnoUwGJvpCP0N4A5tFpCenIWcanAuNtR8ab8eMYAcaHY2YZX3j8+rc348N4PX4e7e0J9GNMGh6SDO/59fBx5PmB4f2Y7QOT6UdtstSYaHj8yE62o7uDgoNtR1E5KDg8BpVLmnzV2SzBgL2pR5HxfHerio0Jdge5KceUi2g3DdZrN13Gl2NEGi9yacplwEUvpxq4xjeUHRsv+8/3xMbL/kw8L5v/29+f7HxxvaIJk2lCXO+U8ek8wRfnG9/uf8pHhPVWFWf7YkB5E/l8SMgL+U/y+83awO9vqjbtJxn0srvs9pMAt72fX7+Nr7Cf40hRxw/Yz3Hejmu8/QaYz1RTurQVqM55jKTjK+znshNVAY0MYzh6UEAHiY6XAN8BZKvj+fvuAFqDiXxTwIBNWjptKmDSGvKR3ZRI7RpAz2HivTc1mB0g0RrKky9k2tb65AuFaVztCkCSVc9dvwEarcFZvwWgKdllHwpA4WtH/ShguCkhwPSJW/QGkD42JcdvdoBxitr7Aar1NgCTHCdLRCuSo6M5nBT+OSCeavoGIMJugDEUQOJthnJEBZDwmaXsDjDA9pjpE9qb48mbnwPqaVvvAPpCVXpkU5pAvxbfdOdAfG0ZXHcOpAQe9vUGyCBLBsju4AJojeU8fOgCLX/AXdEM2nvZ2KIAYmFPzToZlDUBb+MAsPbEfaEyYDizSx6piZpS1YFUKTuXd3EfAuQnZKzRlIpbNLMxA0wHIOcuV7dLl3p+Dmh64xbFhCua+2mV3wsY5z+/HzA/Bpiq+TaAEs5jei8gqpu0AyRn2DeAy215P2B+DPBMloiql+aMYkffv3Tn7NlPQLzLPILTGnRFa3BrYHegJqcEmIbW4rj3RM1XjcK9ndLGxtWhfGkpHlr0PIONF8DoO/mgUdWM6ZEC6r4lPWnTIxXW0PIRxE43Dgtl9XMzy1IrbpcG0h8DiGdvaiGS522ApgDiGv4LpkcGiLcBRAmYHpkUmnOLtltO0QkDiC9qtzwRIGt8pVwRtXcenKkFMuwG0EV3dF6XLL29omXwLiWNcZXNwUXVGnVzcPG8Xxcgnr7jc4AzKKZ4Ety4eimVG6BTHHMq16gZUwqmZkQ0DEBco3YNpRmAUgS1niGDG4BiRaZbe1PApCnZjN2iEXAFg98LCKruNwCTzRY/BGjPpkR2uipfsn0jo2g6QvSSATCGG5XzLatHvHWefuENgDR0uIO7AsevWKVETgxAsmQGSgLvJo64hksx3gA4paShlofAv3I4xBdd3IDcsqn+tAEoMLi8BdnWzn5cPY/pBiAva0XPmwJwSsGdw0D6E82MRwUQ/VkxsqyASqnIctr9G4ByPivXKVOavIagFsgANCWXXjSDETFqL+73MjCcRXi7RcuCEctVFmA2NRDJVVti4ylp6LJKi0bQ5TxV6DW+nLTjxXixz62iG5BUf7XGQR8ViNY54a8OaBtIMKL+/h6QLoSTEF3jI+quoHqiZ8wCBr1ivSDZDuqs9kuiXowPMr6fHser8ZK9H2e5wKvxkgIPRwF5CEo5R0IT68dnTAT48RW9zqDWbzSMxAZV6+MyuC/kTeYzw5k8eSH/8a3+mQmzPVl94JkxJeaywrOeX3yh36RYZLbTeXuhb3X+/aQ8z/cnqtMyL573HJDVJ58TdzRWvcJzU4AzNHZuACKayWU+Ywgo1cnlGdcnOAEgiZjNIlZ4viqAnJB0mfYbgIJUnnTZyVFBRc7qDBqAdEX2wjdO9fQquljk5DreTvPZRX0ZgNx+86jlqOeVF3zl5uSmAAxSOS/ebigxnOrSJNNMOJy0MRqJ8prOILZsJl53KXLl0nRamMXbjKTI0ugoSw8rdtPzFHMa14zvhofKK6orHRtYXzSu63IzzVhgETVX2nlKdkxFyNfELOAsmsk09kUJMZNN0UtGN0n12XWRqpXFr4mPdxcR6pgrnVeY+eYMkr43tRWc208Bzzl1W2vEiNB0pTE1YKnUzRzcAmfs53jEplxnKpM3AN0Iv4oy0KWdU6t391PScCHHF5cld9tE2nU6985OguitSVMXQMSI/jJRAkinyL8CBBebI5Myncu5CVPNrjnlyj7bw6bdrxB9oSnHqnu9kRWAt7qeZbs3NUA8fVb3BQ5uLyPowiOZdqmo67OJRUzHvetE39OovEypBaQnM2mWrkUWvqhswwBYfR00MLxi/LQG51C2jNG/4eoOV+oEtnU5VG9v3IN/PAd0VWStomgYQJyUxtI6moYLW0dOZuRBw0Lj1IXPAUWdFDPtlDgcLv/UAwOy1jP3iAkr40dSkL3oCS066Ul3jlUZJxO63jlYNYLW6/SCzHW48ERnWepT84C9YryhO2ntDcvRuqsL7g31Um9aLNYbhsRsxhJz6xzTWHvigkTEK9euVwVgVDW7RyEdi8W7F75+UtNXAH0Y0jG43V3CagFA+B7X5Q6gNQR3cBx7a9O5HB21hvezOkdL23Dhvc752OvNw80LItFo1Yn3QG5s1qBGBRROc2uIlSNGD4t29+SoKCOqy9GvHPArj1pv3OQ6kaDhHAPQGlaWwwFoDXVoOZrpwk3WWtzXweSkehc8cglRU3U/IufFqyasDEDMeKVr5YVVQqJbnWgYgOqmatDMu9lVMijmwEity8hYxFq6e86XMWNSmvpAK0QOJ12K29aMhSUlaRhhbILMUe2DAYiRlaCMzABU+5WHVnEsAMUSuzoco+DBZVe+PwpH4l0BqAHIpfElpoPZTHbpVQNQ8i1nVcYGoJzyqquVba28aJeqNwDZOAPom8mKKeLsn7c25BoGkBDtaDwll+MzQKcvBKc1GpZB5aAFPoPpz3oDMRVAbGa9p3FfIHLi68x3X3BPaQ1Ahv1R43pfNH3BPXjdbOt6IugPjhbtb1xDPy75G9d4l7KzcRzuN4BEXEfFGFnKLuNaUVpTUhd/XVGaUtKXvpscakoaBB4Fk9L+hc0oXBUQ1Xl9+L+vAKoE2GStRH9XAD2CW+U3jjrgooNbQ8K4dApPCNYmD5kdgIrFFiAoAPOWHsAk8SmA6l08oHMg5AmA8zR+l5aHQvchaM3L8rL4HHxMAO90UK6xCSIk9xK21919EFXZC2YH1p2WmEDG5yzJkcSesL7ZFJk8RjQPm7j3egRXFECRdf9E3Vxy8rL8m7YesJrLP1HblBOt+rL2oS8MLXDarcHlgXrACp7sNN8mMLgonIskYs2Ye2GzSXSu11pRAaQqF5V2qVQqjzB2r4GQjMFN7w70vHut1d0XsEzWn3TGRKd/fLUA/JZKxXsDSOo0baZkrqXkHzZaw5xXcfwepQDPAcOpe85QrwcHLiqNLn5+8oVNmEIVWcJdqpf5eOd9qFM99r4pwIhuW+PuHVJzSoBKbZp7rbXyDxSFq65SYGLrnta0ILoNfmzinlE0Loi2f1ZAQwrXXImHrYpYZXflmo2r8Xt0u8RXtEf1FO0oSXsv6Zc1sBXtLnFUJ6cTXHagDuRLvWrUYdXK05Sqe87SGOCeClZ+Zteb9vXYvLvoLqe40v5wH1by4K0SWC+dKNPk0v7r8RXlH7pW9JWB8aXeNe69eXHWuz6+Wk9daVu7KyHh4ogngMhpHTelzE/6u1PGmetm/LYubkCJo671ReuNJ92Hrg6H8RtKJ6zcmAAyKwGnKo3UUUxgJQTdW1uKOiyPJykAc4ruxm26bqwsqGs1Qp1DelPxfvROeAWQ2P2mo5EBkusGhD2imuuv0pE6dFeVuLrKbZLBUQFEQ7srXUiVW+xV9+C+og/k082rKp2+UJ60AqNclrdA5myiBcqueUNG6rBorXQ0ShhJXJRQABFjlWbYJaG93hLQooM7B26XsipMpGPdRCtqfEm7cQ58Kti66wE40B1YnE+aa3Z0LY1OSaOo1UWJs8fix8W2yx5rn8GGNVhGp7RBaMUarBY0FL/6pHIyWFIiBiB2v57tud6HZB+qIyexcva4OdGomDKvzh3YAVzXjR0guQaXFQ+uurY1u10KmnRZndEo8zrVU9wcnH/zvAD8PqG7NeALCNeFZgeoT6QVp1TUAsWKnmLJmtvdnENxKZGNtBYX3DQAPiyJShIjN6MsLkC7uuzx05XhvoDtT11U2gBkgbKrLlqdAinN6UoXVrNkbh8kbtlq4cqP1YMD4JTc85uY0BfN7hnUenJMj5SqEt3V5paz+BKmMABVxfscuwGwEiFp1CEGrEk0pq2taAMv2uUfNr2DV0JbHlpxZmrq65uJhZ6rn6T+foqCrGeH2mObormPnpvn+IFhmeQkm3utrsd02neaXpQk15moowJ7tIa9gjhoeFLX8jHm9Km7FiacxXatrQtXH7hUf8YyxCfNBjkj7XpUJG7IeJnhx/jN71e6w7nfqtGhyH0Gq9Z0Re5AWTQKGHn+vnk2532LRlUCvz4ten8DPz51qb3A973ofgZ0apd46XxIvy13Mcp41CfuKcj2/e90v5/HiynezCdpemuzXldkFVi/RW1bEDg5HDQaFHaFCUXnT/ITpxb2BLQv0ZVLsTzHqfYuYJwzDucD4v771ix8f6MnThjZjS7tHLEZTXT2InI35a6vsyJ3wW4q/wnLF6LrHcssbnWuUX2Ovcuba728+7sk4mZlnn91EV0Mty53RMdjV5Oi8avCD1KLxk4LEvWHa/HgA5vfr/2VkG9Ep/8benzRtZRq6F2t8ZLeRBfUjx+ob5+NR/3j5s+9Fvz+TAyL+f1fhJ7/bo7kKCK3sPYSsbrz85E1B8DO4J6jJPST1iVwAOwdtP9zRPYfjz9m9NOXX3759reQ7v+uf/zIfvTtDyfl7/8H);fillColor=#d80073;strokeColor=#A50040;fontColor=#ffffff;" parent="1" vertex="1">
                    <mxGeometry x="100" y="94" width="265.77" height="196.8" as="geometry"/>
                </mxCell>
                <mxCell id="6" value="" style="shape=stencil(lZdNctswDIVPoy2GBPi7TtN7ZCZO7alrZxy3TW5fqBo6JhQ92TtZ/kABJPAADvLwtn163Qzs3s6n48/N393zeTvIt4F5d9huTruzPg3yOMjDy/G0+XE6/j48T79fn0ZyfPp1/DOu8D7ZCYkbjdh9TC8SxfT/xfcJ3+8OHe5ihxdit4wzhdzhlaJHuPMd7h3lvMx7KqHnPYWC+JB6nikD9z252vOBJCzz6q1ZP5GviI/c84WcIF6k4/WNA/G69vULzxSh/yZejuTA/rj274XPbYdv40U95Ht4JoHxGv8lEMP1ufR8pAL9j306S6YI96ca/0s78YV8Y7N+hfnmW/Ze8RX4z223Gx80o0B9MSVn+Qh4VYds+QzOSyhUy1fIl9n6iNfTj/fxSe7ho83PlXgjhdn6aD81G2f+o/NKVh9W8iHZ9ZWPcZnP7etXvAf5mamY+iqUgb4VCrN6EVAvhSpb3oP+Uin0/ULrt0Lerp9bu/y6HlVQjAAlSqghOUpsDRzqeJqQ5sg0CZFE+JnGaRWBmNXAipzKBnJJu/Bdqq4GJoYxUdAX+Iu+VNAX2Aat0oEKWQ1Cfw6qrRVk6mjQt/qVVjw30F7P6ODmBqnJ8Y0x+EgeVL8aiDEQWJ7jtvb68nkyiydtBii3lq1mgspthcVk7UPQgQsI2FgNvQIEOJCO5dZPpLJWnqFPvMuIusSbidfBxK62YTo4fqs+ZoOjcW4mvxjPdvpew/keZ5KdbdZwU/F4Z6KVIBVikAfRyrTeDMAxxVlhwbatZWrG6HbLum3qkBb7wtC0csPTh8/b4ctuv58ul5f/l66O3s3m86tXC/l+g8maP/pgb7f6aroZy+M/);fillColor=#f9f7ed;strokeColor=#36393d;" parent="1" vertex="1">
                    <mxGeometry x="149.54000000000002" y="94" width="96.23" height="43.81" as="geometry"/>
                </mxCell>
                <mxCell id="8" value="" style="shape=stencil(lZdNctswDIVPoy2GBPi7TtN7ZCZO7alrZxy3TW5fqBo6JhQ92TtZ/kABJPAADvLwtn163Qzs3s6n48/N393zeTvIt4F5d9huTruzPg3yOMjDy/G0+XE6/j48T79fn0ZyfPp1/DOu8D7ZCYkbjdh9TC8SxfT/xfcJ3+8OHe5ihxdit4wzhdzhlaJHuPMd7h3lvMx7KqHnPYWC+JB6nikD9z252vOBJCzz6q1ZP5GviI/c84WcIF6k4/WNA/G69vULzxSh/yZejuTA/rj274XPbYdv40U95Ht4JoHxGv8lEMP1ufR8pAL9j306S6YI96ca/0s78YV8Y7N+hfnmW/Ze8RX4z223Gx80o0B9MSVn+Qh4VYds+QzOSyhUy1fIl9n6iNfTj/fxSe7ho83PlXgjhdn6aD81G2f+o/NKVh9W8iHZ9ZWPcZnP7etXvAf5mamY+iqUgb4VCrN6EVAvhSpb3oP+Uin0/ULrt0Lerp9bu/y6HlVQjAAlSqghOUpsDRzqeJqQ5sg0CZFE+JnGaRWBmNXAipzKBnJJu/Bdqq4GJoYxUdAX+Iu+VNAX2Aat0oEKWQ1Cfw6qrRVk6mjQt/qVVjw30F7P6ODmBqnJ8Y0x+EgeVL8aiDEQWJ7jtvb68nkyiydtBii3lq1mgspthcVk7UPQgQsI2FgNvQIEOJCO5dZPpLJWnqFPvMuIusSbidfBxK62YTo4fqs+ZoOjcW4mvxjPdvpew/keZ5KdbdZwU/F4Z6KVIBVikAfRyrTeDMAxxVlhwbatZWrG6HbLum3qkBb7wtC0csPTh8/b4ctuv58ul5f/l66O3s3m86tXC/l+g8maP/pgb7f6aroZy+M/);fillColor=#0050ef;strokeColor=#001DBC;fontColor=#ffffff;" parent="1" vertex="1">
                    <mxGeometry x="152.54000000000002" y="97" width="46.23" height="23.81" as="geometry"/>
                </mxCell>
                <mxCell id="11" value="" style="shape=stencil(jZXLUsMwDEW/Jts7tuWX1gX+ozNtaYbSdNLy+nvUCYQqIYKd4ujYknUlN7Q679enbRPc+dJ3T9u3dnPZN3TXhNAe99u+vYjV0H1Dq13Xbx/77uW4Gb5P66vn1XruXq87vA+cdw7OXbHgPoalceFhAA7t8QbggpyVf0VNhn9EicrfJyQL8OCqgOCRiwE4pKKBiFqXgVpQggLII1gAgVkDFcQG4FD0pcYI8stAyWCdQ3KIRtKFEJIGMnJcBrKUSdctExwZQITThcsMbySdGFmHVKIZUorwOmm5NzJCigzSIVU5wRBrnImvVnhDfMRgrwCRo1UHSnBaGiJ4S94iNa9D4oxoAEEajjRQUI2QgqhVi48ZzjpBUuQpkIw6+JmWBCjZANK0RW/mzu9EmPboX0e4WSEYwZBr+W7I0V+yMvwJaebvjQxmc5XHQn75i/EzloeJPv5bmtdZaqW3lS5iY3b9A1Bx7NrDYRKLGNPnRJaGp4juPwE=);fillColor=none;strokeColor=#000000;strokeWidth=2;" parent="1" vertex="1">
                    <mxGeometry x="269.99516540527344" y="137.8144650268555" width="26.38885498046875" height="24.421279907226562" as="geometry"/>
                </mxCell>
                <mxCell id="12" value="" style="shape=stencil(jZXLUsMwDEW/Jts7tuWX1gX+ozNtaYbSdNLy+nvUCYQqIYKd4ujYknUlN7Q679enbRPc+dJ3T9u3dnPZN3TXhNAe99u+vYjV0H1Dq13Xbx/77uW4Gb5P66vn1XruXq87vA+cdw7OXbHgPoalceFhAA7t8QbggpyVf0VNhn9EicrfJyQL8OCqgOCRiwE4pKKBiFqXgVpQggLII1gAgVkDFcQG4FD0pcYI8stAyWCdQ3KIRtKFEJIGMnJcBrKUSdctExwZQITThcsMbySdGFmHVKIZUorwOmm5NzJCigzSIVU5wRBrnImvVnhDfMRgrwCRo1UHSnBaGiJ4S94iNa9D4oxoAEEajjRQUI2QgqhVi48ZzjpBUuQpkIw6+JmWBCjZANK0RW/mzu9EmPboX0e4WSEYwZBr+W7I0V+yMvwJaebvjQxmc5XHQn75i/EzloeJPv5bmtdZaqW3lS5iY3b9A1Bx7NrDYRKLGNPnRJaGp4juPwE=);fillColor=none;strokeColor=#000000;strokeWidth=2;" parent="1" vertex="1">
                    <mxGeometry x="198.76999999999998" y="120" width="21.23" height="25.24" as="geometry"/>
                </mxCell>
                <mxCell id="16" value="" style="shape=stencil(jZXLUsMwDEW/Jts7tuWX1gX+ozNtaYbSdNLy+nvUCYQqIYKd4ujYknUlN7Q679enbRPc+dJ3T9u3dnPZN3TXhNAe99u+vYjV0H1Dq13Xbx/77uW4Gb5P66vn1XruXq87vA+cdw7OXbHgPoalceFhAA7t8QbggpyVf0VNhn9EicrfJyQL8OCqgOCRiwE4pKKBiFqXgVpQggLII1gAgVkDFcQG4FD0pcYI8stAyWCdQ3KIRtKFEJIGMnJcBrKUSdctExwZQITThcsMbySdGFmHVKIZUorwOmm5NzJCigzSIVU5wRBrnImvVnhDfMRgrwCRo1UHSnBaGiJ4S94iNa9D4oxoAEEajjRQUI2QgqhVi48ZzjpBUuQpkIw6+JmWBCjZANK0RW/mzu9EmPboX0e4WSEYwZBr+W7I0V+yMvwJaebvjQxmc5XHQn75i/EzloeJPv5bmtdZaqW3lS5iY3b9A1Bx7NrDYRKLGNPnRJaGp4juPwE=);fillColor=none;strokeColor=#000000;strokeWidth=2;" parent="1" vertex="1">
                    <mxGeometry x="256" y="248" width="10" height="30" as="geometry"/>
                </mxCell>
                <mxCell id="15" value="" style="shape=stencil(jZXLUsMwDEW/Jts7tuWX1gX+ozNtaYbSdNLy+nvUCYQqIYKd4ujYknUlN7Q679enbRPc+dJ3T9u3dnPZN3TXhNAe99u+vYjV0H1Dq13Xbx/77uW4Gb5P66vn1XruXq87vA+cdw7OXbHgPoalceFhAA7t8QbggpyVf0VNhn9EicrfJyQL8OCqgOCRiwE4pKKBiFqXgVpQggLII1gAgVkDFcQG4FD0pcYI8stAyWCdQ3KIRtKFEJIGMnJcBrKUSdctExwZQITThcsMbySdGFmHVKIZUorwOmm5NzJCigzSIVU5wRBrnImvVnhDfMRgrwCRo1UHSnBaGiJ4S94iNa9D4oxoAEEajjRQUI2QgqhVi48ZzjpBUuQpkIw6+JmWBCjZANK0RW/mzu9EmPboX0e4WSEYwZBr+W7I0V+yMvwJaebvjQxmc5XHQn75i/EzloeJPv5bmtdZaqW3lS5iY3b9A1Bx7NrDYRKLGNPnRJaGp4juPwE=);fillColor=none;strokeColor=#000000;strokeWidth=2;direction=south;" parent="1" vertex="1">
                    <mxGeometry x="242.78895294189454" y="199.0206774902344" width="24.421279907226562" height="26.38885498046875" as="geometry"/>
                </mxCell>
                <mxCell id="14" value="" style="shape=stencil(jZXLUsMwDEW/Jts7tuWX1gX+ozNtaYbSdNLy+nvUCYQqIYKd4ujYknUlN7Q679enbRPc+dJ3T9u3dnPZN3TXhNAe99u+vYjV0H1Dq13Xbx/77uW4Gb5P66vn1XruXq87vA+cdw7OXbHgPoalceFhAA7t8QbggpyVf0VNhn9EicrfJyQL8OCqgOCRiwE4pKKBiFqXgVpQggLII1gAgVkDFcQG4FD0pcYI8stAyWCdQ3KIRtKFEJIGMnJcBrKUSdctExwZQITThcsMbySdGFmHVKIZUorwOmm5NzJCigzSIVU5wRBrnImvVnhDfMRgrwCRo1UHSnBaGiJ4S94iNa9D4oxoAEEajjRQUI2QgqhVi48ZzjpBUuQpkIw6+JmWBCjZANK0RW/mzu9EmPboX0e4WSEYwZBr+W7I0V+yMvwJaebvjQxmc5XHQn75i/EzloeJPv5bmtdZaqW3lS5iY3b9A1Bx7NrDYRKLGNPnRJaGp4juPwE=);fillColor=none;strokeColor=#000000;strokeWidth=2;direction=south;" parent="1" vertex="1">
                    <mxGeometry x="111" y="220" width="38.56" height="15.41" as="geometry"/>
                </mxCell>
                <mxCell id="13" value="" style="shape=stencil(jZXLUsMwDEW/Jts7tuWX1gX+ozNtaYbSdNLy+nvUCYQqIYKd4ujYknUlN7Q679enbRPc+dJ3T9u3dnPZN3TXhNAe99u+vYjV0H1Dq13Xbx/77uW4Gb5P66vn1XruXq87vA+cdw7OXbHgPoalceFhAA7t8QbggpyVf0VNhn9EicrfJyQL8OCqgOCRiwE4pKKBiFqXgVpQggLII1gAgVkDFcQG4FD0pcYI8stAyWCdQ3KIRtKFEJIGMnJcBrKUSdctExwZQITThcsMbySdGFmHVKIZUorwOmm5NzJCigzSIVU5wRBrnImvVnhDfMRgrwCRo1UHSnBaGiJ4S94iNa9D4oxoAEEajjRQUI2QgqhVi48ZzjpBUuQpkIw6+JmWBCjZANK0RW/mzu9EmPboX0e4WSEYwZBr+W7I0V+yMvwJaebvjQxmc5XHQn75i/EzloeJPv5bmtdZaqW3lS5iY3b9A1Bx7NrDYRKLGNPnRJaGp4juPwE=);fillColor=none;strokeColor=#000000;strokeWidth=2;" parent="1" vertex="1">
                    <mxGeometry x="160" y="262.37" width="23.92" height="27.63" as="geometry"/>
                </mxCell>
                <mxCell id="17" value="" style="shape=stencil(jZXLUsMwDEW/Jts7tuWX1gX+ozNtaYbSdNLy+nvUCYQqIYKd4ujYknUlN7Q679enbRPc+dJ3T9u3dnPZN3TXhNAe99u+vYjV0H1Dq13Xbx/77uW4Gb5P66vn1XruXq87vA+cdw7OXbHgPoalceFhAA7t8QbggpyVf0VNhn9EicrfJyQL8OCqgOCRiwE4pKKBiFqXgVpQggLII1gAgVkDFcQG4FD0pcYI8stAyWCdQ3KIRtKFEJIGMnJcBrKUSdctExwZQITThcsMbySdGFmHVKIZUorwOmm5NzJCigzSIVU5wRBrnImvVnhDfMRgrwCRo1UHSnBaGiJ4S94iNa9D4oxoAEEajjRQUI2QgqhVi48ZzjpBUuQpkIw6+JmWBCjZANK0RW/mzu9EmPboX0e4WSEYwZBr+W7I0V+yMvwJaebvjQxmc5XHQn75i/EzloeJPv5bmtdZaqW3lS5iY3b9A1Bx7NrDYRKLGNPnRJaGp4juPwE=);fillColor=none;strokeColor=#000000;strokeWidth=2;direction=south;" parent="1" vertex="1">
                    <mxGeometry x="185.44895294189453" y="206.0206774902344" width="24.421279907226562" height="26.38885498046875" as="geometry"/>
                </mxCell>
                <mxCell id="18" value="" style="shape=stencil(jZXLUsMwDEW/Jts7tuWX1gX+ozNtaYbSdNLy+nvUCYQqIYKd4ujYknUlN7Q679enbRPc+dJ3T9u3dnPZN3TXhNAe99u+vYjV0H1Dq13Xbx/77uW4Gb5P66vn1XruXq87vA+cdw7OXbHgPoalceFhAA7t8QbggpyVf0VNhn9EicrfJyQL8OCqgOCRiwE4pKKBiFqXgVpQggLII1gAgVkDFcQG4FD0pcYI8stAyWCdQ3KIRtKFEJIGMnJcBrKUSdctExwZQITThcsMbySdGFmHVKIZUorwOmm5NzJCigzSIVU5wRBrnImvVnhDfMRgrwCRo1UHSnBaGiJ4S94iNa9D4oxoAEEajjRQUI2QgqhVi48ZzjpBUuQpkIw6+JmWBCjZANK0RW/mzu9EmPboX0e4WSEYwZBr+W7I0V+yMvwJaebvjQxmc5XHQn75i/EzloeJPv5bmtdZaqW3lS5iY3b9A1Bx7NrDYRKLGNPnRJaGp4juPwE=);fillColor=none;strokeColor=#000000;strokeWidth=2;" parent="1" vertex="1">
                    <mxGeometry x="200" y="256.37" width="22.58" height="33.63" as="geometry"/>
                </mxCell>
                <mxCell id="19" value="" style="shape=stencil(jZXLUsMwDEW/Jts7tuWX1gX+ozNtaYbSdNLy+nvUCYQqIYKd4ujYknUlN7Q679enbRPc+dJ3T9u3dnPZN3TXhNAe99u+vYjV0H1Dq13Xbx/77uW4Gb5P66vn1XruXq87vA+cdw7OXbHgPoalceFhAA7t8QbggpyVf0VNhn9EicrfJyQL8OCqgOCRiwE4pKKBiFqXgVpQggLII1gAgVkDFcQG4FD0pcYI8stAyWCdQ3KIRtKFEJIGMnJcBrKUSdctExwZQITThcsMbySdGFmHVKIZUorwOmm5NzJCigzSIVU5wRBrnImvVnhDfMRgrwCRo1UHSnBaGiJ4S94iNa9D4oxoAEEajjRQUI2QgqhVi48ZzjpBUuQpkIw6+JmWBCjZANK0RW/mzu9EmPboX0e4WSEYwZBr+W7I0V+yMvwJaebvjQxmc5XHQn75i/EzloeJPv5bmtdZaqW3lS5iY3b9A1Bx7NrDYRKLGNPnRJaGp4juPwE=);fillColor=none;strokeColor=#000000;strokeWidth=2;direction=south;" parent="1" vertex="1">
                    <mxGeometry x="100" y="250" width="50" height="20" as="geometry"/>
                </mxCell>
                <mxCell id="21" value="" style="shape=stencil(jZXLUsMwDEW/Jts7tuWX1gX+ozNtaYbSdNLy+nvUCYQqIYKd4ujYknUlN7Q679enbRPc+dJ3T9u3dnPZN3TXhNAe99u+vYjV0H1Dq13Xbx/77uW4Gb5P66vn1XruXq87vA+cdw7OXbHgPoalceFhAA7t8QbggpyVf0VNhn9EicrfJyQL8OCqgOCRiwE4pKKBiFqXgVpQggLII1gAgVkDFcQG4FD0pcYI8stAyWCdQ3KIRtKFEJIGMnJcBrKUSdctExwZQITThcsMbySdGFmHVKIZUorwOmm5NzJCigzSIVU5wRBrnImvVnhDfMRgrwCRo1UHSnBaGiJ4S94iNa9D4oxoAEEajjRQUI2QgqhVi48ZzjpBUuQpkIw6+JmWBCjZANK0RW/mzu9EmPboX0e4WSEYwZBr+W7I0V+yMvwJaebvjQxmc5XHQn75i/EzloeJPv5bmtdZaqW3lS5iY3b9A1Bx7NrDYRKLGNPnRJaGp4juPwE=);fillColor=none;strokeWidth=5;strokeColor=#0A0A0A;" parent="1" vertex="1">
                    <mxGeometry x="141.76999999999998" y="124" width="21.23" height="25.24" as="geometry"/>
                </mxCell>
            </root>
        </mxGraphModel>
    </diagram>
</mxfile>